<mxfile modified="2024-06-11T09:14:39.739Z" host="app.diagrams.net" agent="Mozilla/5.0 (Windows NT 10.0; Win64; x64) AppleWebKit/537.36 (KHTML, like Gecko) Chrome/125.0.0.0 Safari/537.36" etag="wzYAZrZmBurU1PsVf5gj" version="24.5.2" type="device">
  <diagram id="Ht1M8jgEwFfnCIfOTk4-" name="Page-1">
    <mxGraphModel dx="1400" dy="743" grid="1" gridSize="10" guides="1" tooltips="1" connect="1" arrows="1" fold="1" page="1" pageScale="1" pageWidth="1169" pageHeight="827" math="0" shadow="0">
      <root>
        <mxCell id="0" />
        <mxCell id="1" parent="0" />
        <mxCell id="-Y3cj4r4HTxuOiC9yCcB-18" value="&lt;b&gt;CQRS / SAGA&lt;/b&gt;" style="fillColor=none;strokeColor=#147EBA;dashed=1;verticalAlign=top;fontStyle=0;fontColor=#147EBA;whiteSpace=wrap;html=1;" parent="1" vertex="1">
          <mxGeometry x="661" y="100" width="470" height="480" as="geometry" />
        </mxCell>
        <mxCell id="-Y3cj4r4HTxuOiC9yCcB-11" style="edgeStyle=orthogonalEdgeStyle;rounded=0;orthogonalLoop=1;jettySize=auto;html=1;dashed=1;dashPattern=8 8;" parent="1" source="-Y3cj4r4HTxuOiC9yCcB-1" target="-Y3cj4r4HTxuOiC9yCcB-8" edge="1">
          <mxGeometry relative="1" as="geometry">
            <Array as="points">
              <mxPoint x="800" y="390" />
              <mxPoint x="896" y="390" />
            </Array>
          </mxGeometry>
        </mxCell>
        <mxCell id="g5xIjcwEQH4wi7cb8cEw-12" style="rounded=0;orthogonalLoop=1;jettySize=auto;html=1;fillColor=#008a00;strokeColor=#005700;dashed=1;dashPattern=1 4;" edge="1" parent="1" source="-Y3cj4r4HTxuOiC9yCcB-1" target="g5xIjcwEQH4wi7cb8cEw-9">
          <mxGeometry relative="1" as="geometry" />
        </mxCell>
        <mxCell id="-Y3cj4r4HTxuOiC9yCcB-1" value="&lt;b&gt;&lt;font style=&quot;font-size: 15px;&quot;&gt;users-query-service&lt;/font&gt;&lt;/b&gt;" style="sketch=0;outlineConnect=0;fontColor=#232F3E;gradientColor=none;fillColor=#ED7100;strokeColor=none;dashed=0;verticalLabelPosition=bottom;verticalAlign=top;align=center;html=1;fontSize=12;fontStyle=0;aspect=fixed;pointerEvents=1;shape=mxgraph.aws4.ec2_aws_microservice_extractor_for_net;" parent="1" vertex="1">
          <mxGeometry x="720" y="430" width="98" height="98" as="geometry" />
        </mxCell>
        <mxCell id="g5xIjcwEQH4wi7cb8cEw-11" style="rounded=0;orthogonalLoop=1;jettySize=auto;html=1;fillColor=#008a00;strokeColor=#005700;dashed=1;dashPattern=1 4;" edge="1" parent="1" source="-Y3cj4r4HTxuOiC9yCcB-2" target="g5xIjcwEQH4wi7cb8cEw-9">
          <mxGeometry relative="1" as="geometry" />
        </mxCell>
        <mxCell id="-Y3cj4r4HTxuOiC9yCcB-2" value="&lt;b&gt;&lt;font style=&quot;font-size: 15px;&quot;&gt;users-command-service&lt;/font&gt;&lt;/b&gt;" style="sketch=0;outlineConnect=0;fontColor=#232F3E;gradientColor=none;fillColor=#ED7100;strokeColor=none;dashed=0;verticalLabelPosition=bottom;verticalAlign=top;align=center;html=1;fontSize=12;fontStyle=0;aspect=fixed;pointerEvents=1;shape=mxgraph.aws4.ec2_aws_microservice_extractor_for_net;" parent="1" vertex="1">
          <mxGeometry x="720" y="120" width="98" height="98" as="geometry" />
        </mxCell>
        <mxCell id="-Y3cj4r4HTxuOiC9yCcB-5" style="edgeStyle=orthogonalEdgeStyle;rounded=0;orthogonalLoop=1;jettySize=auto;html=1;" parent="1" source="-Y3cj4r4HTxuOiC9yCcB-3" target="-Y3cj4r4HTxuOiC9yCcB-2" edge="1">
          <mxGeometry relative="1" as="geometry" />
        </mxCell>
        <mxCell id="-Y3cj4r4HTxuOiC9yCcB-3" value="&lt;b style=&quot;color: rgb(35, 47, 62); text-wrap: nowrap;&quot;&gt;&lt;font style=&quot;font-size: 15px;&quot;&gt;users-command-service&lt;/font&gt;&lt;/b&gt;" style="strokeWidth=2;html=1;shape=mxgraph.flowchart.database;whiteSpace=wrap;" parent="1" vertex="1">
          <mxGeometry x="970" y="139" width="60" height="60" as="geometry" />
        </mxCell>
        <mxCell id="-Y3cj4r4HTxuOiC9yCcB-6" style="edgeStyle=orthogonalEdgeStyle;rounded=0;orthogonalLoop=1;jettySize=auto;html=1;" parent="1" source="-Y3cj4r4HTxuOiC9yCcB-4" target="-Y3cj4r4HTxuOiC9yCcB-1" edge="1">
          <mxGeometry relative="1" as="geometry" />
        </mxCell>
        <mxCell id="-Y3cj4r4HTxuOiC9yCcB-4" value="&lt;b style=&quot;color: rgb(35, 47, 62); text-wrap: nowrap;&quot;&gt;&lt;font style=&quot;font-size: 15px;&quot;&gt;users-query-service&lt;/font&gt;&lt;/b&gt;" style="strokeWidth=2;html=1;shape=mxgraph.flowchart.database;whiteSpace=wrap;" parent="1" vertex="1">
          <mxGeometry x="970" y="449" width="60" height="60" as="geometry" />
        </mxCell>
        <mxCell id="-Y3cj4r4HTxuOiC9yCcB-10" style="edgeStyle=orthogonalEdgeStyle;rounded=0;orthogonalLoop=1;jettySize=auto;html=1;exitX=0.5;exitY=1;exitDx=0;exitDy=0;exitPerimeter=0;dashed=1;dashPattern=8 8;" parent="1" source="-Y3cj4r4HTxuOiC9yCcB-7" target="-Y3cj4r4HTxuOiC9yCcB-1" edge="1">
          <mxGeometry relative="1" as="geometry" />
        </mxCell>
        <mxCell id="-Y3cj4r4HTxuOiC9yCcB-7" value="&lt;span style=&quot;background-color:#191d1f;padding:0px 0px 0px 2px;&quot;&gt;&lt;span style=&quot;color:#d8d8d8;background-color:#191d1f;font-family:&amp;quot;Consolas&amp;quot;;font-size:10pt;white-space:pre;&quot;&gt;&lt;span style=&quot;color:#ffc600;&quot;&gt;new-user&lt;/span&gt;&lt;/span&gt;&lt;/span&gt;" style="sketch=0;aspect=fixed;pointerEvents=1;shadow=0;dashed=0;html=1;strokeColor=none;labelPosition=center;verticalLabelPosition=bottom;verticalAlign=top;align=center;fillColor=#00188D;shape=mxgraph.azure.queue_generic" parent="1" vertex="1">
          <mxGeometry x="733" y="301.6" width="72" height="21.6" as="geometry" />
        </mxCell>
        <mxCell id="-Y3cj4r4HTxuOiC9yCcB-12" style="edgeStyle=orthogonalEdgeStyle;rounded=0;orthogonalLoop=1;jettySize=auto;html=1;dashed=1;dashPattern=8 8;" parent="1" source="-Y3cj4r4HTxuOiC9yCcB-8" target="-Y3cj4r4HTxuOiC9yCcB-2" edge="1">
          <mxGeometry relative="1" as="geometry">
            <Array as="points">
              <mxPoint x="896" y="260" />
              <mxPoint x="800" y="260" />
            </Array>
          </mxGeometry>
        </mxCell>
        <mxCell id="-Y3cj4r4HTxuOiC9yCcB-8" value="&lt;span style=&quot;background-color:#191d1f;padding:0px 0px 0px 2px;&quot;&gt;&lt;span style=&quot;color: rgb(216, 216, 216); font-family: Consolas; font-size: 10pt; white-space-collapse: preserve;&quot;&gt;&lt;span style=&quot;color:#ffc600;&quot;&gt;rollback-user&lt;/span&gt;&lt;/span&gt;&lt;/span&gt;" style="sketch=0;aspect=fixed;pointerEvents=1;shadow=0;dashed=0;html=1;strokeColor=none;labelPosition=center;verticalLabelPosition=bottom;verticalAlign=top;align=center;fillColor=#00188D;shape=mxgraph.azure.queue_generic" parent="1" vertex="1">
          <mxGeometry x="860" y="301.6" width="72" height="21.6" as="geometry" />
        </mxCell>
        <mxCell id="-Y3cj4r4HTxuOiC9yCcB-9" style="edgeStyle=orthogonalEdgeStyle;rounded=0;orthogonalLoop=1;jettySize=auto;html=1;entryX=0.5;entryY=0;entryDx=0;entryDy=0;entryPerimeter=0;dashed=1;dashPattern=8 8;" parent="1" source="-Y3cj4r4HTxuOiC9yCcB-2" target="-Y3cj4r4HTxuOiC9yCcB-7" edge="1">
          <mxGeometry relative="1" as="geometry" />
        </mxCell>
        <mxCell id="-Y3cj4r4HTxuOiC9yCcB-20" style="edgeStyle=orthogonalEdgeStyle;rounded=0;orthogonalLoop=1;jettySize=auto;html=1;" parent="1" source="-Y3cj4r4HTxuOiC9yCcB-18" target="-Y3cj4r4HTxuOiC9yCcB-19" edge="1">
          <mxGeometry relative="1" as="geometry" />
        </mxCell>
        <mxCell id="-Y3cj4r4HTxuOiC9yCcB-19" value="discovery-service" style="sketch=0;points=[[0,0,0],[0.25,0,0],[0.5,0,0],[0.75,0,0],[1,0,0],[0,1,0],[0.25,1,0],[0.5,1,0],[0.75,1,0],[1,1,0],[0,0.25,0],[0,0.5,0],[0,0.75,0],[1,0.25,0],[1,0.5,0],[1,0.75,0]];outlineConnect=0;fontColor=#232F3E;fillColor=#01A88D;strokeColor=#ffffff;dashed=0;verticalLabelPosition=bottom;verticalAlign=top;align=center;html=1;fontSize=12;fontStyle=0;aspect=fixed;shape=mxgraph.aws4.resourceIcon;resIcon=mxgraph.aws4.application_discovery_service;" parent="1" vertex="1">
          <mxGeometry x="410" y="301" width="78" height="78" as="geometry" />
        </mxCell>
        <mxCell id="-Y3cj4r4HTxuOiC9yCcB-24" style="edgeStyle=orthogonalEdgeStyle;rounded=0;orthogonalLoop=1;jettySize=auto;html=1;" parent="1" source="-Y3cj4r4HTxuOiC9yCcB-21" target="-Y3cj4r4HTxuOiC9yCcB-19" edge="1">
          <mxGeometry relative="1" as="geometry">
            <Array as="points">
              <mxPoint x="600" y="709" />
              <mxPoint x="600" y="340" />
            </Array>
          </mxGeometry>
        </mxCell>
        <mxCell id="g5xIjcwEQH4wi7cb8cEw-13" style="rounded=0;orthogonalLoop=1;jettySize=auto;html=1;fillColor=#008a00;strokeColor=#005700;dashed=1;dashPattern=1 4;" edge="1" parent="1" source="-Y3cj4r4HTxuOiC9yCcB-21" target="g5xIjcwEQH4wi7cb8cEw-9">
          <mxGeometry relative="1" as="geometry" />
        </mxCell>
        <mxCell id="-Y3cj4r4HTxuOiC9yCcB-21" value="&lt;b&gt;&lt;font style=&quot;font-size: 15px;&quot;&gt;notes-service&lt;/font&gt;&lt;/b&gt;" style="sketch=0;outlineConnect=0;fontColor=#232F3E;gradientColor=none;fillColor=#ED7100;strokeColor=none;dashed=0;verticalLabelPosition=bottom;verticalAlign=top;align=center;html=1;fontSize=12;fontStyle=0;aspect=fixed;pointerEvents=1;shape=mxgraph.aws4.ec2_aws_microservice_extractor_for_net;" parent="1" vertex="1">
          <mxGeometry x="720" y="660" width="98" height="98" as="geometry" />
        </mxCell>
        <mxCell id="-Y3cj4r4HTxuOiC9yCcB-23" style="edgeStyle=orthogonalEdgeStyle;rounded=0;orthogonalLoop=1;jettySize=auto;html=1;" parent="1" source="-Y3cj4r4HTxuOiC9yCcB-22" target="-Y3cj4r4HTxuOiC9yCcB-21" edge="1">
          <mxGeometry relative="1" as="geometry" />
        </mxCell>
        <mxCell id="-Y3cj4r4HTxuOiC9yCcB-22" value="&lt;b style=&quot;color: rgb(35, 47, 62); text-wrap: nowrap;&quot;&gt;&lt;font style=&quot;font-size: 15px;&quot;&gt;notes-service&lt;/font&gt;&lt;/b&gt;" style="strokeWidth=2;html=1;shape=mxgraph.flowchart.database;whiteSpace=wrap;" parent="1" vertex="1">
          <mxGeometry x="970" y="679" width="60" height="60" as="geometry" />
        </mxCell>
        <mxCell id="-Y3cj4r4HTxuOiC9yCcB-25" value="" style="edgeStyle=orthogonalEdgeStyle;html=1;endArrow=block;elbow=vertical;startArrow=block;startFill=1;endFill=1;strokeColor=#545B64;rounded=0;" parent="1" source="-Y3cj4r4HTxuOiC9yCcB-1" target="-Y3cj4r4HTxuOiC9yCcB-21" edge="1">
          <mxGeometry width="100" relative="1" as="geometry">
            <mxPoint x="600" y="570" as="sourcePoint" />
            <mxPoint x="700" y="570" as="targetPoint" />
          </mxGeometry>
        </mxCell>
        <mxCell id="-Y3cj4r4HTxuOiC9yCcB-27" style="edgeStyle=orthogonalEdgeStyle;rounded=0;orthogonalLoop=1;jettySize=auto;html=1;" parent="1" source="-Y3cj4r4HTxuOiC9yCcB-26" target="-Y3cj4r4HTxuOiC9yCcB-19" edge="1">
          <mxGeometry relative="1" as="geometry" />
        </mxCell>
        <mxCell id="-Y3cj4r4HTxuOiC9yCcB-26" value="api-gateway-service" style="sketch=0;points=[[0,0,0],[0.25,0,0],[0.5,0,0],[0.75,0,0],[1,0,0],[0,1,0],[0.25,1,0],[0.5,1,0],[0.75,1,0],[1,1,0],[0,0.25,0],[0,0.5,0],[0,0.75,0],[1,0.25,0],[1,0.5,0],[1,0.75,0]];outlineConnect=0;fontColor=#232F3E;fillColor=#E7157B;strokeColor=#ffffff;dashed=0;verticalLabelPosition=bottom;verticalAlign=top;align=center;html=1;fontSize=12;fontStyle=0;aspect=fixed;shape=mxgraph.aws4.resourceIcon;resIcon=mxgraph.aws4.api_gateway;" parent="1" vertex="1">
          <mxGeometry x="250" y="301.6" width="78" height="78" as="geometry" />
        </mxCell>
        <mxCell id="XNfFdGujErjBYv-WOLaN-3" style="edgeStyle=orthogonalEdgeStyle;rounded=0;orthogonalLoop=1;jettySize=auto;html=1;" parent="1" source="XNfFdGujErjBYv-WOLaN-2" target="-Y3cj4r4HTxuOiC9yCcB-26" edge="1">
          <mxGeometry relative="1" as="geometry" />
        </mxCell>
        <mxCell id="XNfFdGujErjBYv-WOLaN-2" value="Actor" style="shape=umlActor;verticalLabelPosition=bottom;verticalAlign=top;html=1;outlineConnect=0;" parent="1" vertex="1">
          <mxGeometry x="50" y="311" width="30" height="60" as="geometry" />
        </mxCell>
        <mxCell id="g5xIjcwEQH4wi7cb8cEw-7" style="edgeStyle=orthogonalEdgeStyle;rounded=0;orthogonalLoop=1;jettySize=auto;html=1;" edge="1" parent="1" source="g5xIjcwEQH4wi7cb8cEw-1" target="g5xIjcwEQH4wi7cb8cEw-6">
          <mxGeometry relative="1" as="geometry" />
        </mxCell>
        <mxCell id="g5xIjcwEQH4wi7cb8cEw-1" value="&lt;span style=&quot;background-color:#191d1f;padding:0px 0px 0px 2px;&quot;&gt;&lt;span style=&quot;color: rgb(216, 216, 216); font-family: Consolas; font-size: 10pt; white-space-collapse: preserve;&quot;&gt;&lt;b&gt;Prometheus&lt;/b&gt;&lt;/span&gt;&lt;/span&gt;" style="sketch=0;points=[[0,0,0],[0.25,0,0],[0.5,0,0],[0.75,0,0],[1,0,0],[0,1,0],[0.25,1,0],[0.5,1,0],[0.75,1,0],[1,1,0],[0,0.25,0],[0,0.5,0],[0,0.75,0],[1,0.25,0],[1,0.5,0],[1,0.75,0]];points=[[0,0,0],[0.25,0,0],[0.5,0,0],[0.75,0,0],[1,0,0],[0,1,0],[0.25,1,0],[0.5,1,0],[0.75,1,0],[1,1,0],[0,0.25,0],[0,0.5,0],[0,0.75,0],[1,0.25,0],[1,0.5,0],[1,0.75,0]];outlineConnect=0;fontColor=#232F3E;fillColor=#E7157B;strokeColor=#ffffff;dashed=0;verticalLabelPosition=bottom;verticalAlign=top;align=center;html=1;fontSize=12;fontStyle=0;aspect=fixed;shape=mxgraph.aws4.resourceIcon;resIcon=mxgraph.aws4.managed_service_for_prometheus;" vertex="1" parent="1">
          <mxGeometry x="410" y="560" width="78" height="78" as="geometry" />
        </mxCell>
        <mxCell id="g5xIjcwEQH4wi7cb8cEw-2" style="rounded=0;orthogonalLoop=1;jettySize=auto;html=1;dashed=1;dashPattern=1 4;fillColor=#f8cecc;strokeColor=#b85450;" edge="1" parent="1" source="-Y3cj4r4HTxuOiC9yCcB-2" target="g5xIjcwEQH4wi7cb8cEw-1">
          <mxGeometry relative="1" as="geometry" />
        </mxCell>
        <mxCell id="g5xIjcwEQH4wi7cb8cEw-3" style="rounded=0;orthogonalLoop=1;jettySize=auto;html=1;dashed=1;dashPattern=1 4;fillColor=#f8cecc;strokeColor=#b85450;" edge="1" parent="1" source="-Y3cj4r4HTxuOiC9yCcB-1" target="g5xIjcwEQH4wi7cb8cEw-1">
          <mxGeometry relative="1" as="geometry" />
        </mxCell>
        <mxCell id="g5xIjcwEQH4wi7cb8cEw-4" style="rounded=0;orthogonalLoop=1;jettySize=auto;html=1;dashed=1;dashPattern=1 4;fillColor=#f8cecc;strokeColor=#b85450;" edge="1" parent="1" source="-Y3cj4r4HTxuOiC9yCcB-21" target="g5xIjcwEQH4wi7cb8cEw-1">
          <mxGeometry relative="1" as="geometry" />
        </mxCell>
        <mxCell id="g5xIjcwEQH4wi7cb8cEw-6" value="&lt;b&gt;grafana&lt;/b&gt;" style="sketch=0;points=[[0,0,0],[0.25,0,0],[0.5,0,0],[0.75,0,0],[1,0,0],[0,1,0],[0.25,1,0],[0.5,1,0],[0.75,1,0],[1,1,0],[0,0.25,0],[0,0.5,0],[0,0.75,0],[1,0.25,0],[1,0.5,0],[1,0.75,0]];points=[[0,0,0],[0.25,0,0],[0.5,0,0],[0.75,0,0],[1,0,0],[0,1,0],[0.25,1,0],[0.5,1,0],[0.75,1,0],[1,1,0],[0,0.25,0],[0,0.5,0],[0,0.75,0],[1,0.25,0],[1,0.5,0],[1,0.75,0]];outlineConnect=0;fontColor=#232F3E;fillColor=#E7157B;strokeColor=#ffffff;dashed=0;verticalLabelPosition=bottom;verticalAlign=top;align=center;html=1;fontSize=12;fontStyle=0;aspect=fixed;shape=mxgraph.aws4.resourceIcon;resIcon=mxgraph.aws4.managed_service_for_grafana;" vertex="1" parent="1">
          <mxGeometry x="250" y="560" width="78" height="78" as="geometry" />
        </mxCell>
        <mxCell id="g5xIjcwEQH4wi7cb8cEw-15" value="" style="edgeStyle=orthogonalEdgeStyle;rounded=0;orthogonalLoop=1;jettySize=auto;html=1;" edge="1" parent="1" source="g5xIjcwEQH4wi7cb8cEw-9" target="g5xIjcwEQH4wi7cb8cEw-14">
          <mxGeometry relative="1" as="geometry" />
        </mxCell>
        <mxCell id="g5xIjcwEQH4wi7cb8cEw-17" style="edgeStyle=orthogonalEdgeStyle;rounded=0;orthogonalLoop=1;jettySize=auto;html=1;" edge="1" parent="1" source="g5xIjcwEQH4wi7cb8cEw-9" target="g5xIjcwEQH4wi7cb8cEw-16">
          <mxGeometry relative="1" as="geometry" />
        </mxCell>
        <mxCell id="g5xIjcwEQH4wi7cb8cEw-9" value="&lt;b&gt;Elastic Search&lt;/b&gt;" style="outlineConnect=0;dashed=0;verticalLabelPosition=bottom;verticalAlign=top;align=center;html=1;shape=mxgraph.aws3.elasticsearch_service;fillColor=#F58534;gradientColor=none;" vertex="1" parent="1">
          <mxGeometry x="418" y="780" width="70" height="90" as="geometry" />
        </mxCell>
        <mxCell id="g5xIjcwEQH4wi7cb8cEw-14" value="&lt;b&gt;Logstash&lt;/b&gt;" style="verticalLabelPosition=bottom;sketch=0;html=1;fillColor=#A153A0;strokeColor=#ffffff;verticalAlign=top;align=center;points=[[0,0.5,0],[0.125,0.25,0],[0.25,0,0],[0.5,0,0],[0.75,0,0],[0.875,0.25,0],[1,0.5,0],[0.875,0.75,0],[0.75,1,0],[0.5,1,0],[0.125,0.75,0]];pointerEvents=1;shape=mxgraph.cisco_safe.compositeIcon;bgIcon=mxgraph.cisco_safe.design.blank_device;resIcon=mxgraph.cisco_safe.design.log_collector_2;" vertex="1" parent="1">
          <mxGeometry x="408" y="960" width="90" height="70" as="geometry" />
        </mxCell>
        <mxCell id="g5xIjcwEQH4wi7cb8cEw-16" value="&lt;b&gt;Kibana&lt;/b&gt;" style="image;html=1;image=img/lib/clip_art/finance/Graph_128x128.png" vertex="1" parent="1">
          <mxGeometry x="248" y="785" width="80" height="80" as="geometry" />
        </mxCell>
      </root>
    </mxGraphModel>
  </diagram>
</mxfile>
